HIERARCHY
ROOT Hips
{
  OFFSET 14.7107 39.4347 -4.39026
  CHANNELS 6 Xposition Yposition Zposition Zrotation Xrotation Yrotation
  JOINT LeftHip
  {
    OFFSET 3.43 0 0
    CHANNELS 6 Xposition Yposition Zposition Zrotation Xrotation Yrotation
    JOINT LeftKnee
    {
      OFFSET 0 -18.47 0
      CHANNELS 6 Xposition Yposition Zposition Zrotation Xrotation Yrotation
      JOINT LeftAnkle
      {
        OFFSET 0 -17.95 0
        CHANNELS 6 Xposition Yposition Zposition Zrotation Xrotation Yrotation
        End Site
        {
          OFFSET 0 -3.12 0
        }
      }
    }
  }
  JOINT RightHip
  {
    OFFSET -3.43 0 0
    CHANNELS 6 Xposition Yposition Zposition Zrotation Xrotation Yrotation
    JOINT RightKnee
    {
      OFFSET 0 -18.47 0
      CHANNELS 6 Xposition Yposition Zposition Zrotation Xrotation Yrotation
      JOINT RightAnkle
      {
        OFFSET 0 -17.95 0
        CHANNELS 6 Xposition Yposition Zposition Zrotation Xrotation Yrotation
        End Site
        {
          OFFSET 0 -3.12 0
        }
      }
    }
  }
  JOINT Chest
  {
    OFFSET 0 4.57 0
    CHANNELS 6 Xposition Yposition Zposition Zrotation Xrotation Yrotation
    JOINT CS_BVH
    {
      OFFSET 0 6.57 0
      CHANNELS 6 Xposition Yposition Zposition Zrotation Xrotation Yrotation
      JOINT LeftCollar
      {
        OFFSET 1.06 4.19 1.76
        CHANNELS 6 Xposition Yposition Zposition Zrotation Xrotation Yrotation
        JOINT LeftShoulder
        {
          OFFSET 5.81 0 0
          CHANNELS 6 Xposition Yposition Zposition Zrotation Xrotation Yrotation
          JOINT LeftElbow
          {
            OFFSET 0 -12.08 0
            CHANNELS 6 Xposition Yposition Zposition Zrotation Xrotation Yrotation
            JOINT LeftWrist
            {
              OFFSET 0 -9.82 0
              CHANNELS 6 Xposition Yposition Zposition Zrotation Xrotation Yrotation
              End Site
              {
                OFFSET 0 -7.37 0
              }
            }
          }
        }
      }
      JOINT RightCollar
      {
        OFFSET -1.06 4.19 1.76
        CHANNELS 6 Xposition Yposition Zposition Zrotation Xrotation Yrotation
        JOINT RightShoulder
        {
          OFFSET -6.06 0 0
          CHANNELS 6 Xposition Yposition Zposition Zrotation Xrotation Yrotation
          JOINT RightElbow
          {
            OFFSET 0 -11.08 0
            CHANNELS 6 Xposition Yposition Zposition Zrotation Xrotation Yrotation
            JOINT RightWrist
            {
              OFFSET 0 -9.82 0
              CHANNELS 6 Xposition Yposition Zposition Zrotation Xrotation Yrotation
              End Site
              {
                OFFSET 0 -7.14001 0
              }
            }
          }
        }
      }
      JOINT Neck
      {
        OFFSET 0 4.05 0
        CHANNELS 6 Xposition Yposition Zposition Zrotation Xrotation Yrotation
        JOINT Head
        {
          OFFSET 0 5.19 0
          CHANNELS 6 Xposition Yposition Zposition Zrotation Xrotation Yrotation
          End Site
          {
            OFFSET 0 4.14001 0
          }
        }
      }
    }
  }
}
MOTION
Frames:	8
Frame Time:	0.0333333
17.1034 39.3324 -5.94937 -1.09167 -0.036195 -0.198107 3.43 9.12756e-010 -1.60032e-011 5.20762 1.91495 -2.10036 1.57372e-008 -18.47 1.10541e-007 -2.36816 10.6612 -3.3857 1.5558e-008 -17.95 3.38894e-008 -0.96126 -12.7471 -0.720975 -3.43 -9.12749e-010 1.60023e-011 -3.6702 2.08106 -0.18763 4.27853e-008 -18.47 -1.42709e-007 -3.43018 9.24539 -5.18605 -2.59563e-008 -17.95 2.98131e-008 9.32234 -10.3702 0.0873978 -1.05168e-009 4.57 4.29798e-011 1.25555 -0.0578453 -0.265448 -1.67976e-009 6.57 2.67812e-010 1.29688 -0.147662 -0.108082 1.06 4.19 1.76 9.3822 -0.167716 -0.0395241 5.81 -5.77685e-010 -2.42139e-010 78.8448 4.83271 0.133598 -4.70036e-009 -12.08 6.73172e-010 3.51253 -0.380597 0.602907 -1.10605e-009 -9.82 -1.29618e-009 -0.794312 -0.569281 -0.158674 -1.06 4.19 1.76 -9.31557 -0.153975 -0.0650072 -6.06 -5.89036e-008 -4.70616e-010 -77.6561 3.07533 0.351286 -7.10448e-009 -11.08 -5.62306e-011 -1.15301 -0.00511443 -1.42402 -1.10928e-009 -9.82 1.29577e-009 2.10849 6.19768 -0.385908 4.66962e-010 4.05 1.19922e-010 0.970922 -0.980308 0.116077 3.38399e-009 5.19 -2.27068e-010 0.0527892 0.293165 -0.0338499 
17.1599 39.1359 -5.99835 -0.755385 0.596653 -0.483043 3.43 9.12756e-010 -1.60032e-011 5.13418 -0.364325 -2.61552 1.57372e-008 -18.47 1.10541e-007 -3.18692 13.3417 -1.70054 1.5558e-008 -17.95 3.38894e-008 -0.79476 -13.7865 -0.828019 -3.43 -9.12749e-010 1.60023e-011 -4.56422 -1.38922 0.0484947 4.27853e-008 -18.47 -1.42709e-007 -2.57302 15.0718 -4.98245 -2.59563e-008 -17.95 2.98131e-008 9.34388 -13.3793 0.524807 -1.05168e-009 4.57 4.29798e-011 1.35158 -0.185053 -0.137217 -1.67976e-009 6.57 2.67812e-010 1.36862 -0.378271 0.160104 1.06 4.19 1.76 8.52177 -0.38435 0.666858 5.81 -5.77685e-010 -2.42139e-010 79.3358 4.13239 0.564911 -4.70036e-009 -12.08 6.73172e-010 4.12496 -0.452037 -1.72584 -1.10605e-009 -9.82 -1.29618e-009 -1.19092 -0.60102 -0.250543 -1.06 4.19 1.76 -10.9762 -0.44119 -0.332202 -6.06 -5.89036e-008 -4.70616e-010 -76.2091 2.8406 0.250818 -7.10448e-009 -11.08 -5.62306e-011 -1.04259 -0.00511555 -0.769631 -1.10928e-009 -9.82 1.29577e-009 1.63132 6.09438 -0.315333 4.66962e-010 4.05 1.19922e-010 0.19252 -1.24792 0.525445 3.38399e-009 5.19 -2.27068e-010 1.07809 0.324942 -0.741732 
17.1622 39.2978 -5.88083 -1.17661 0.256271 0.099901 3.43 9.12756e-010 -1.60032e-011 5.4076 1.17372 -2.29486 1.57372e-008 -18.47 1.10541e-007 -2.57285 11.3684 -3.33323 1.5558e-008 -17.95 3.38894e-008 -0.876561 -13.0258 -0.753391 -3.43 -9.12749e-010 1.60023e-011 -3.60809 1.74146 -0.186684 4.27853e-008 -18.47 -1.42709e-007 -3.49281 9.63623 -5.57508 -2.59563e-008 -17.95 2.98131e-008 9.52274 -10.6402 0.121567 -1.05168e-009 4.57 4.29798e-011 1.4847 -0.100518 -0.243204 -1.67976e-009 6.57 2.67812e-010 1.60325 -0.229659 -0.0550237 1.06 4.19 1.76 8.85923 -0.234226 0.466738 5.81 -5.77685e-010 -2.42139e-010 79.1283 4.08851 0.445327 -4.70036e-009 -12.08 6.73172e-010 4.00348 -0.439584 -1.71885 -1.10605e-009 -9.82 -1.29618e-009 -1.14144 -0.525556 -0.244185 -1.06 4.19 1.76 -10.6424 -0.200679 -0.665126 -6.06 -5.89036e-008 -4.70616e-010 -76.1476 2.63986 0.356214 -7.10448e-009 -11.08 -5.62306e-011 -0.924824 -0.0051158 -0.514508 -1.10928e-009 -9.82 1.29577e-009 1.75983 6.34557 -0.339061 4.66962e-010 4.05 1.19922e-010 0.442139 -1.13058 0.260895 3.38399e-009 5.19 -2.27068e-010 0.832971 0.620713 -0.665893 
17.1762 39.1131 -5.85626 -1.24924 0.202038 0.343404 3.43 9.12756e-010 -1.60032e-011 5.77007 -0.279647 -2.52045 1.57372e-008 -18.47 1.10541e-007 -3.44668 14.1682 -2.44494 1.5558e-008 -17.95 3.38894e-008 -0.489973 -14.3209 -0.880914 -3.43 -9.12749e-010 1.60023e-011 -3.77224 -0.205991 0.0892431 4.27853e-008 -18.47 -1.42709e-007 -3.03332 14.2392 -5.93679 -2.59563e-008 -17.95 2.98131e-008 9.7213 -13.1766 0.495313 -1.05168e-009 4.57 4.29798e-011 1.64295 -0.106665 -0.281526 -1.67976e-009 6.57 2.67812e-010 1.61238 -0.226897 -0.0820924 1.06 4.19 1.76 8.97775 -0.223843 0.298303 5.81 -5.77685e-010 -2.42139e-010 79.1397 4.13464 0.311791 -4.70036e-009 -12.08 6.73172e-010 3.98259 -0.438991 -1.84563 -1.10605e-009 -9.82 -1.29618e-009 -0.86649 -0.612249 -0.171044 -1.06 4.19 1.76 -10.3776 -0.190448 -0.546065 -6.06 -5.89036e-008 -4.70616e-010 -76.3819 2.84233 0.51072 -7.10448e-009 -11.08 -5.62306e-011 -0.910288 -0.00511583 -0.478645 -1.10928e-009 -9.82 1.29577e-009 1.59343 6.49984 -0.318457 4.66962e-010 4.05 1.19922e-010 0.510972 -0.980047 0.196664 3.38399e-009 5.19 -2.27068e-010 0.735058 0.527763 -0.621804 
17.1622 39.2926 -5.78405 -1.11549 0.0138441 0.422829 3.43 9.12756e-010 -1.60032e-011 5.41902 1.61093 -2.28263 1.57372e-008 -18.47 1.10541e-007 -2.55361 11.1979 -4.04552 1.5558e-008 -17.95 3.38894e-008 -0.795649 -13.0722 -0.752631 -3.43 -9.12749e-010 1.60023e-011 -3.63876 2.25896 -0.285262 4.27853e-008 -18.47 -1.42709e-007 -3.49661 9.56027 -5.60118 -2.59563e-008 -17.95 2.98131e-008 9.53078 -10.8333 0.150269 -1.05168e-009 4.57 4.29798e-011 1.44718 -0.0514923 -0.293225 -1.67976e-009 6.57 2.67812e-010 1.5648 -0.132186 -0.142658 1.06 4.19 1.76 8.95969 -0.130736 0.148002 5.81 -5.77685e-010 -2.42139e-010 79.0878 4.29039 0.357274 -4.70036e-009 -12.08 6.73172e-010 4.10886 -0.452542 -2.05948 -1.10605e-009 -9.82 -1.29618e-009 -1.03568 -0.511771 -0.217514 -1.06 4.19 1.76 -10.5983 -0.081056 -0.461444 -6.06 -5.89036e-008 -4.70616e-010 -75.9762 2.79898 0.520029 -7.10448e-009 -11.08 -5.62306e-011 -0.917681 -0.00511547 -0.834788 -1.10928e-009 -9.82 1.29577e-009 1.44778 6.25289 -0.292314 4.66962e-010 4.05 1.19922e-010 0.541294 -0.848564 0.22814 3.38399e-009 5.19 -2.27068e-010 0.756856 0.592965 -0.507505 
17.1737 39.2813 -5.73316 -1.11104 0.122206 0.590326 3.43 9.12756e-010 -1.60032e-011 5.46386 1.44836 -2.28386 1.57372e-008 -18.47 1.10541e-007 -2.69107 11.344 -4.07811 1.5558e-008 -17.95 3.38894e-008 -0.694284 -13.1642 -0.76121 -3.43 -9.12749e-010 1.60023e-011 -3.59456 2.23636 -0.288557 4.27853e-008 -18.47 -1.42709e-007 -3.61352 9.61357 -5.92136 -2.59563e-008 -17.95 2.98131e-008 9.67841 -10.912 0.159961 -1.05168e-009 4.57 4.29798e-011 1.47952 -0.0885716 -0.291494 -1.67976e-009 6.57 2.67812e-010 1.58945 -0.206081 -0.142406 1.06 4.19 1.76 8.94789 -0.232803 0.112037 5.81 -5.77685e-010 -2.42139e-010 79.1637 4.21526 0.353013 -4.70036e-009 -12.08 6.73172e-010 4.21667 -0.468039 -2.69335 -1.10605e-009 -9.82 -1.29618e-009 -1.01655 -0.447857 -0.224908 -1.06 4.19 1.76 -10.3959 -0.184743 -0.458418 -6.06 -5.89036e-008 -4.70616e-010 -76.3652 2.93861 0.484133 -7.10448e-009 -11.08 -5.62306e-011 -0.920177 -0.00511551 -0.801821 -1.10928e-009 -9.82 1.29577e-009 1.72787 6.17639 -0.33091 4.66962e-010 4.05 1.19922e-010 0.570093 -0.789807 0.122658 3.38399e-009 5.19 -2.27068e-010 0.474414 0.168018 -0.471248 
17.231 39.3041 -5.73201 -0.399072 0.902834 0.601039 3.43 9.12756e-010 -1.60032e-011 4.52588 1.15151 -2.65047 1.57372e-008 -18.47 1.10541e-007 -2.41157 10.3743 -3.75785 1.5558e-008 -17.95 3.38894e-008 -0.828064 -12.688 -0.70406 -3.43 -9.12749e-010 1.60023e-011 -4.61812 1.15994 -0.572107 4.27853e-008 -18.47 -1.42709e-007 -3.26248 10.3555 -5.59454 -2.59563e-008 -17.95 2.98131e-008 9.63077 -11.3761 0.239198 -1.05168e-009 4.57 4.29798e-011 1.15762 -0.28271 -0.243175 -1.67976e-009 6.57 2.67812e-010 1.25836 -0.591163 -0.0907247 1.06 4.19 1.76 8.81821 -0.756168 0.0967523 5.81 -5.77685e-010 -2.42139e-010 79.1772 4.28389 0.246513 -4.70036e-009 -12.08 6.73172e-010 4.1928 -0.471061 -2.54586 -1.10605e-009 -9.82 -1.29618e-009 -1.04226 -0.42655 -0.217419 -1.06 4.19 1.76 -10.7965 -0.689812 -0.629668 -6.06 -5.89036e-008 -4.70616e-010 -76.1318 2.86361 0.398609 -7.10448e-009 -11.08 -5.62306e-011 -0.906101 -0.00511594 -0.302263 -1.10928e-009 -9.82 1.29577e-009 1.35491 6.32046 -0.280398 4.66962e-010 4.05 1.19922e-010 0.419377 -1.18088 0.0698584 3.38399e-009 5.19 -2.27068e-010 0.544661 0.540841 -0.489664 
17.2039 39.3112 -5.63008 -0.885265 0.110215 0.882968 3.43 9.12756e-010 -1.60032e-011 5.20944 1.9904 -2.19459 1.57372e-008 -18.47 1.10541e-007 -2.60911 10.5016 -4.45861 1.5558e-008 -17.95 3.38894e-008 -0.667112 -12.8527 -0.723925 -3.43 -9.12749e-010 1.60023e-011 -3.83104 2.90411 -0.565516 4.27853e-008 -18.47 -1.42709e-007 -3.64904 8.73792 -5.91746 -2.59563e-008 -17.95 2.98131e-008 9.70796 -10.6733 0.125005 -1.05168e-009 4.57 4.29798e-011 1.35007 -0.102561 -0.306613 -1.67976e-009 6.57 2.67812e-010 1.47195 -0.236761 -0.186246 1.06 4.19 1.76 9.01767 -0.302533 -0.177646 5.81 -5.77685e-010 -2.42139e-010 79.2935 4.31997 0.362294 -4.70036e-009 -12.08 6.73172e-010 4.26754 -0.473824 -2.77118 -1.10605e-009 -9.82 -1.29618e-009 -1.04494 -0.533738 -0.216735 -1.06 4.19 1.76 -10.3635 -0.203443 -0.634593 -6.06 -5.89036e-008 -4.70616e-010 -76.4857 2.87128 0.34088 -7.10448e-009 -11.08 -5.62306e-011 -0.990614 -0.0051156 -0.728853 -1.10928e-009 -9.82 1.29577e-009 1.47471 6.4558 -0.300476 4.66962e-010 4.05 1.19922e-010 0.632844 -0.87478 -0.096122 3.38399e-009 5.19 -2.27068e-010 0.499585 0.428212 -0.541152 
